<svg width="51" height="49" xmlns="http://www.w3.org/2000/svg" xmlns:xlink="http://www.w3.org/1999/xlink" overflow="hidden"><defs><clipPath id="clip0"><rect x="793" y="356" width="51" height="49"/></clipPath><clipPath id="clip1"><rect x="794" y="356" width="49" height="49"/></clipPath><clipPath id="clip2"><rect x="794" y="356" width="49" height="49"/></clipPath><clipPath id="clip3"><rect x="794" y="356" width="49" height="49"/></clipPath><linearGradient x1="796.722" y1="402.278" x2="840.278" y2="358.722" gradientUnits="userSpaceOnUse" spreadMethod="pad" id="fill4"><stop offset="0" stop-color="#1B660F" stop-opacity="1"/><stop offset="1" stop-color="#6CAE3E" stop-opacity="1"/></linearGradient></defs><g clip-path="url(#clip0)" transform="translate(-793 -356)"><g clip-path="url(#clip1)"><g clip-path="url(#clip2)"><g clip-path="url(#clip3)"><path d="M796.722 358.722 840.278 358.722 840.278 402.278 796.722 402.278Z" fill="url(#fill4)" fill-rule="evenodd"/><path d="M794.681 356.681 842.319 356.681 842.319 404.319 794.681 404.319Z" stroke="#879196" stroke-width="1.36111" stroke-linecap="butt" stroke-linejoin="miter" stroke-miterlimit="4" stroke-opacity="1" fill="none" fill-rule="evenodd"/><path d="M814.417 385.944 822.583 385.944 822.584 387.986 814.417 387.986 814.417 385.944ZM814.417 389.347 822.583 389.347C823.334 389.347 823.944 388.737 823.944 387.986L823.944 385.944C823.944 385.194 823.334 384.583 822.583 384.583L814.417 384.583C813.666 384.583 813.056 385.194 813.056 385.944L813.056 387.986C813.056 388.737 813.666 389.347 814.417 389.347ZM813.056 378.458 823.944 378.458 823.944 377.097 813.056 377.097 813.056 378.458ZM813.056 371.653 817.139 371.653 817.139 370.292 813.056 370.292 813.056 371.653ZM813.056 375.056 817.819 375.056 817.819 373.694 813.056 373.694 813.056 375.056ZM830.75 393.258C830.75 393.729 830.367 394.111 829.897 394.111L807.103 394.111C806.633 394.111 806.25 393.729 806.25 393.258L806.25 382.542 830.75 382.542 830.75 393.258ZM811.014 366.889 820.542 366.889 820.542 371.653C820.542 372.028 820.846 372.333 821.222 372.333L825.986 372.333 825.986 381.181 811.014 381.181 811.014 366.889ZM821.903 367.851 825.024 370.972 821.903 370.972 821.903 367.851ZM831.431 381.181 827.347 381.181 827.347 371.653 827.341 371.653C827.34 371.476 827.278 371.302 827.148 371.172L821.703 365.727C821.573 365.597 821.399 365.535 821.222 365.534L821.222 365.528 810.333 365.528C809.957 365.528 809.653 365.833 809.653 366.208L809.653 381.181 805.569 381.181C805.193 381.181 804.889 381.485 804.889 381.861L804.889 393.258C804.889 394.479 805.883 395.472 807.103 395.472L829.897 395.472C831.117 395.472 832.111 394.479 832.111 393.258L832.111 381.861C832.111 381.485 831.807 381.181 831.431 381.181Z" fill="#FFFFFF" fill-rule="evenodd" fill-opacity="1"/></g></g></g></g></svg>